<svg width="46" height="66" viewBox="0 0 46 66" fill="none" xmlns="http://www.w3.org/2000/svg">
<path d="M23.0032 1C12.4217 1 1 9.41321 1 23.0032C1 29.7101 3.66839 35.353 8.79313 39.6296C8.84635 39.6962 8.90824 39.7554 8.97715 39.8056C12.7797 43.9302 12.9717 44.7143 12.9977 46.5286C13.0097 47.2467 13.0037 47.4587 12.9977 47.5747L12.9897 47.9928C12.9597 48.8969 12.9137 50.4111 14.788 50.9832L30.9783 54.5457C31.2375 54.6025 31.5086 54.554 31.732 54.4109C31.9554 54.2678 32.1127 54.0418 32.1695 53.7826C32.2263 53.5235 32.1778 53.2524 32.0347 53.029C31.8915 52.8056 31.6656 52.6482 31.4064 52.5914L15.2941 49.0489C14.984 48.9549 14.958 48.9469 14.986 48.0528L14.992 47.6707C14.992 47.6707 15.012 47.5147 14.996 46.4986C14.958 43.9602 14.4059 42.734 10.3774 38.3794C10.3005 38.2845 10.207 38.2045 10.1013 38.1434C5.38864 34.1368 3.00029 29.044 3.00029 23.0032C3.00029 10.6474 13.3818 3.00029 23.0032 3.00029C32.8366 3.00029 43.0061 10.4834 43.0061 23.0032C43.0061 30.9603 39.1495 35.347 35.9691 38.1074C35.8581 38.1607 35.7583 38.2347 35.675 38.3254C31.6004 42.734 31.0483 43.9602 31.0103 46.4986V46.7046L31.0083 46.7746C31.0023 46.9266 30.9803 47.0106 30.9823 47.0426C30.9043 47.0309 30.8263 47.0189 30.7483 47.0066L22.3571 45.0324C22.2292 45.0023 22.0966 44.9977 21.9669 45.0189C21.8372 45.04 21.7129 45.0865 21.6012 45.1557C21.4895 45.2249 21.3925 45.3154 21.3157 45.4221C21.239 45.5288 21.184 45.6495 21.1539 45.7775C21.1238 45.9054 21.1193 46.038 21.1404 46.1677C21.1616 46.2974 21.2081 46.4216 21.2773 46.5334C21.3465 46.6451 21.437 46.7421 21.5437 46.8188C21.6503 46.8956 21.7711 46.9506 21.899 46.9806L30.1882 48.9249C30.2982 48.9649 31.2944 49.289 32.1345 48.6989C32.5006 48.4408 32.9266 47.9348 33.0026 46.9666L33.0086 46.8726L33.0126 46.6746L33.0106 46.6226L33.0126 46.5306C33.0386 44.7263 33.2267 43.9422 37.0232 39.8176C37.0412 39.8036 37.0612 39.7896 37.0772 39.7736C42.412 35.291 45.0064 29.8042 45.0064 23.0032C45.0064 9.23119 33.8187 1 23.0032 1ZM31.0043 60.0085C31.2313 60.0089 31.4516 59.9318 31.6287 59.7899C31.8059 59.6481 31.9293 59.45 31.9785 59.2284C32.0077 59.1003 32.0114 58.9677 31.9893 58.8382C31.9673 58.7087 31.9198 58.5849 31.8498 58.4738C31.7797 58.3626 31.6884 58.2664 31.5811 58.1907C31.4738 58.1149 31.3525 58.061 31.2244 58.0322L15.2221 54.4037C14.966 54.3519 14.6998 54.4023 14.4804 54.5441C14.2611 54.686 14.1059 54.9081 14.0482 55.1629C13.9904 55.4177 14.0346 55.6849 14.1714 55.9075C14.3082 56.1301 14.5266 56.2904 14.78 56.354L30.7823 59.9825C30.8551 59.9998 30.9296 60.0085 31.0043 60.0085ZM16.2202 60.1165C16.0902 60.0821 15.9545 60.0743 15.8214 60.0936C15.6883 60.1128 15.5604 60.1587 15.4454 60.2285C15.3305 60.2983 15.2307 60.3906 15.1523 60.4998C15.0738 60.6091 15.0181 60.733 14.9886 60.8642C14.9592 60.9955 14.9565 61.1313 14.9807 61.2636C15.0049 61.3959 15.0556 61.522 15.1297 61.6343C15.2038 61.7465 15.2997 61.8427 15.4118 61.917C15.5239 61.9913 15.6499 62.0423 15.7821 62.0668L28.784 64.9832C29.0384 65.0304 29.3012 64.9771 29.5172 64.8346C29.7331 64.6921 29.8855 64.4715 29.9422 64.219C29.9989 63.9666 29.9556 63.702 29.8213 63.4808C29.687 63.2596 29.4722 63.0991 29.2221 63.033L16.2202 60.1165Z" fill="white" stroke="white" stroke-width="2"/>
</svg>
