<svg width="54" height="78" viewBox="0 0 54 78" fill="none" xmlns="http://www.w3.org/2000/svg">
    <g opacity="0.7">
        <path
            d="M26.875 13C18.2788 13 9 19.8347 9 30.875C9 36.3236 11.1677 40.9077 15.331 44.382C15.3742 44.4361 15.4245 44.4842 15.4805 44.525C18.5696 47.8757 18.7256 48.5127 18.7467 49.9866C18.7565 50.57 18.7516 50.7422 18.7467 50.8365L18.7402 51.1761C18.7159 51.9106 18.6785 53.1407 20.2011 53.6055L33.3539 56.4996C33.5644 56.5457 33.7846 56.5063 33.9661 56.3901C34.1476 56.2738 34.2754 56.0902 34.3216 55.8797C34.3677 55.6691 34.3283 55.4489 34.212 55.2674C34.0957 55.086 33.9122 54.9581 33.7016 54.912L20.6122 52.0341C20.3604 51.9577 20.3393 51.9512 20.362 51.2249L20.3669 50.9145C20.3669 50.9145 20.3831 50.7877 20.3701 49.9622C20.3393 47.9001 19.8907 46.904 16.618 43.3664C16.5556 43.2893 16.4796 43.2243 16.3938 43.1746C12.5653 39.9197 10.625 35.7825 10.625 30.875C10.625 20.8374 19.0588 14.625 26.875 14.625C34.8635 14.625 43.125 20.7041 43.125 30.875C43.125 37.3392 39.992 40.9029 37.4083 43.1454C37.3181 43.1887 37.237 43.2488 37.1694 43.3225C33.8592 46.904 33.4108 47.9001 33.3799 49.9622V50.1296L33.3783 50.1865C33.3734 50.31 33.3555 50.3782 33.3571 50.4042C33.2937 50.3947 33.2303 50.3849 33.167 50.375L26.3501 48.7711C26.2462 48.7467 26.1385 48.743 26.0331 48.7602C25.9278 48.7774 25.8268 48.8151 25.736 48.8713C25.6453 48.9275 25.5665 49.0011 25.5041 49.0877C25.4418 49.1744 25.3971 49.2725 25.3727 49.3764C25.3483 49.4804 25.3445 49.5881 25.3617 49.6934C25.3789 49.7988 25.4167 49.8997 25.4729 49.9905C25.5291 50.0813 25.6027 50.1601 25.6893 50.2224C25.776 50.2848 25.8741 50.3294 25.978 50.3539L32.712 51.9334C32.8014 51.9659 33.6106 52.2291 34.2931 51.7497C34.5905 51.5401 34.9366 51.129 34.9984 50.3425L35.0033 50.2661L35.0065 50.1052L35.0049 50.063L35.0065 49.9882C35.0276 48.5225 35.1804 47.8855 38.2646 44.5347C38.2793 44.5234 38.2955 44.512 38.3085 44.499C42.6424 40.8574 44.75 36.4 44.75 30.875C44.75 19.6869 35.6614 13 26.875 13ZM33.375 60.9375C33.5594 60.9378 33.7383 60.8752 33.8822 60.7599C34.0261 60.6447 34.1264 60.4837 34.1664 60.3037C34.1901 60.1997 34.1931 60.092 34.1752 59.9868C34.1573 59.8816 34.1187 59.781 34.0618 59.6907C34.0049 59.6004 33.9307 59.5222 33.8435 59.4607C33.7564 59.3991 33.6579 59.3554 33.5537 59.332L20.5538 56.3842C20.3457 56.3421 20.1295 56.3831 19.9513 56.4983C19.7731 56.6136 19.647 56.794 19.6001 57.001C19.5532 57.208 19.5891 57.4251 19.7002 57.6059C19.8113 57.7867 19.9888 57.9169 20.1946 57.9686L33.1946 60.9164C33.2537 60.9304 33.3143 60.9375 33.375 60.9375ZM21.3646 61.0252C21.259 60.9973 21.1488 60.991 21.0407 61.0066C20.9325 61.0222 20.8286 61.0595 20.7352 61.1162C20.6418 61.1729 20.5608 61.2479 20.497 61.3366C20.4333 61.4254 20.3881 61.5261 20.3641 61.6327C20.3402 61.7393 20.338 61.8496 20.3577 61.9571C20.3774 62.0646 20.4185 62.167 20.4787 62.2582C20.5389 62.3494 20.6168 62.4275 20.7079 62.4879C20.799 62.5483 20.9013 62.5897 21.0087 62.6096L31.5713 64.9789C31.7779 65.0172 31.9914 64.9739 32.1669 64.8582C32.3423 64.7424 32.4661 64.5631 32.5121 64.358C32.5582 64.153 32.523 63.938 32.4139 63.7583C32.3048 63.5786 32.1303 63.4482 31.9271 63.3945L21.3646 61.0252Z"
            fill="white" stroke="white" />
    </g>
</svg>