<svg width="58" height="58" viewBox="0 0 58 58" fill="none" xmlns="http://www.w3.org/2000/svg">
    <path
        d="M29.0029 1.11682C36.398 1.11682 43.4906 4.05467 48.7197 9.28381C53.9486 14.5129 56.8866 21.6048 56.8867 28.9996C56.8867 36.3947 53.9488 43.4873 48.7197 48.7164C43.4906 53.9456 36.398 56.8834 29.0029 56.8834H3.48438C3.01248 56.9033 2.54472 56.7829 2.1416 56.5367C1.74233 56.2929 1.42393 55.9368 1.22559 55.5133C1.04385 55.08 0.994186 54.6027 1.08301 54.1412C1.17191 53.6798 1.39498 53.2544 1.72461 52.9196L7.3916 47.2535L7.68066 46.9645L7.41992 46.649C3.32402 41.6826 1.09575 35.4391 1.12012 29.0016V28.9996C1.1202 21.6048 4.05731 14.5128 9.28613 9.28381C11.8753 6.69461 14.95 4.64016 18.333 3.23889C21.7158 1.83777 25.3414 1.11684 29.0029 1.11682ZM37.8174 7.63733C32.8752 5.59408 27.3774 5.32772 22.2607 6.88342C17.1442 8.4391 12.7253 11.7203 9.75684 16.1686C6.78846 20.617 5.45422 25.9572 5.98145 31.2789C6.50868 36.6002 8.8646 41.5739 12.6475 45.3531V45.3541C13.0911 45.8006 13.3398 46.4044 13.3398 47.0338C13.3398 47.663 13.0917 48.2671 12.6484 48.7135L10.0127 51.3483L9.24512 52.1168H29.0029C34.3509 52.1126 39.5326 50.2539 43.6641 46.858C47.7954 43.4622 50.6216 38.7386 51.6611 33.4928C52.7005 28.247 51.8885 22.803 49.3643 18.0885C46.84 13.374 42.7594 9.68057 37.8174 7.63733ZM20.5029 37.9498H37.5029C38.135 37.9498 38.7415 38.2011 39.1885 38.6481C39.6354 39.095 39.8867 39.7016 39.8867 40.3336C39.8866 40.9655 39.6352 41.5713 39.1885 42.0182C38.7415 42.4652 38.135 42.7164 37.5029 42.7164H20.5029C19.8709 42.7164 19.2643 42.4651 18.8174 42.0182C18.3707 41.5713 18.1202 40.9654 18.1201 40.3336C18.1201 39.7016 18.3706 39.095 18.8174 38.6481C19.2643 38.2011 19.8709 37.9499 20.5029 37.9498ZM14.8359 26.6168H43.1699C43.8019 26.6169 44.4076 26.8682 44.8545 27.3151C45.3014 27.7619 45.5526 28.3677 45.5527 28.9996C45.5527 29.6317 45.3015 30.2382 44.8545 30.6852C44.4076 31.132 43.8018 31.3834 43.1699 31.3834H14.8359C14.204 31.3833 13.5982 31.132 13.1514 30.6852C12.7044 30.2382 12.4531 29.6317 12.4531 28.9996C12.4532 28.3677 12.7045 27.7619 13.1514 27.3151C13.5982 26.8682 14.204 26.6169 14.8359 26.6168ZM20.5029 15.2828H37.5029C38.135 15.2828 38.7415 15.5342 39.1885 15.9811C39.6354 16.428 39.8867 17.0345 39.8867 17.6666C39.8867 18.2987 39.6354 18.9052 39.1885 19.3522C38.7415 19.7991 38.135 20.0504 37.5029 20.0504H20.5029C19.8709 20.0504 19.2643 19.7991 18.8174 19.3522C18.3705 18.9052 18.1201 18.2987 18.1201 17.6666C18.1201 17.0346 18.3705 16.428 18.8174 15.9811C19.2643 15.5341 19.8709 15.2829 20.5029 15.2828Z"
        fill="black" stroke="#FCFCFC" stroke-width="0.9" />
</svg>