<svg width="58" height="48" viewBox="0 0 58 48" fill="none" xmlns="http://www.w3.org/2000/svg">
    <g opacity="0.7">
        <path
            d="M1.14177 13.7278C0.838952 13.7278 0.548538 13.8481 0.334415 14.0623C0.120292 14.2765 0 14.5671 0 14.87C0 15.1729 0.120292 15.4635 0.334415 15.6777C0.548538 15.8919 0.838952 16.0122 1.14177 16.0122H8.65003C8.95285 16.0122 9.24325 15.8919 9.45738 15.6777C9.6715 15.4635 9.7918 15.1729 9.7918 14.87C9.7918 14.5671 9.6715 14.2765 9.45738 14.0623C9.24325 13.8481 8.95285 13.7278 8.65003 13.7278H1.14177ZM12.5731 13.7278C12.2703 13.7278 11.9799 13.8481 11.7658 14.0623C11.5517 14.2765 11.4314 14.5671 11.4314 14.87C11.4314 15.1729 11.5517 15.4635 11.7658 15.6777C11.9799 15.8919 12.2703 16.0122 12.5731 16.0122H55.773C56.0759 16.0122 56.3663 15.8919 56.5804 15.6777C56.7945 15.4635 56.9148 15.1729 56.9148 14.87C56.9148 14.5671 56.7945 14.2765 56.5804 14.0623C56.3663 13.8481 56.0759 13.7278 55.773 13.7278H12.5754H12.5731Z"
            fill="white" />
        <path
            d="M10.2617 0.0546477C10.0542 0.055561 9.85081 0.113092 9.67348 0.22098C9.49614 0.328869 9.35156 0.48306 9.25528 0.666997C9.159 0.850934 9.11466 1.05759 9.12703 1.26485C9.1394 1.47211 9.20801 1.67215 9.32549 1.84332L18.4596 15.5492C18.5428 15.674 18.6498 15.7812 18.7744 15.8646C18.8991 15.948 19.0389 16.0062 19.1859 16.0355C19.333 16.0649 19.4844 16.065 19.6315 16.0358C19.7786 16.0067 19.9185 15.9488 20.0433 15.8656C20.168 15.7823 20.2752 15.6753 20.3586 15.5506C20.442 15.426 20.5 15.2862 20.5294 15.1391C20.5587 14.9919 20.5589 14.8405 20.5297 14.6933C20.5006 14.5462 20.4427 14.4062 20.3595 14.2815L11.2254 0.575535C11.1213 0.414884 10.9785 0.282989 10.8101 0.19198C10.6417 0.100972 10.4531 0.0537082 10.2617 0.0546477ZM46.7412 0.0227197C46.5556 0.0274163 46.374 0.0772454 46.2121 0.167999C46.0501 0.258753 45.9127 0.387618 45.8118 0.543468L36.6777 14.2494C36.5945 14.3742 36.5366 14.5142 36.5075 14.6614C36.4783 14.8085 36.4785 14.9599 36.5078 15.107C36.5372 15.2541 36.5952 15.394 36.6786 15.5187C36.7621 15.6434 36.8692 15.7504 36.9939 15.8337C37.1187 15.9169 37.2586 15.9747 37.4057 16.0039C37.5528 16.033 37.7042 16.0329 37.8513 16.0035C37.9983 15.9741 38.1381 15.9161 38.2628 15.8327C38.3874 15.7492 38.4944 15.642 38.5776 15.5172L47.7117 1.81125C47.8309 1.63768 47.8999 1.43458 47.9109 1.22427C47.9219 1.01397 47.8746 0.804683 47.7742 0.619593C47.6737 0.434504 47.5241 0.280871 47.3418 0.175528C47.1595 0.0701854 46.9517 0.0172813 46.7412 0.0227197Z"
            fill="white" />
        <path
            d="M28.5655 0.000443696C28.3801 0.00575815 28.1988 0.0562566 28.0372 0.147409C27.8757 0.238562 27.7388 0.367634 27.6383 0.523608L18.5034 14.2307C18.415 14.3554 18.3525 14.4966 18.3197 14.6458C18.2868 14.7951 18.2843 14.9494 18.3121 15.0997C18.3399 15.25 18.3976 15.3931 18.4818 15.5207C18.5659 15.6482 18.6748 15.7575 18.802 15.8422C18.9291 15.9269 19.072 15.9852 19.2221 16.0137C19.3722 16.0422 19.5265 16.0402 19.6758 16.008C19.8251 15.9757 19.9665 15.9139 20.0915 15.826C20.2164 15.7381 20.3225 15.626 20.4034 15.4964L29.5384 1.78927C29.6577 1.61552 29.7267 1.41208 29.7376 1.20155C29.7486 0.99101 29.7011 0.781579 29.6003 0.596393C29.4996 0.411207 29.3496 0.257468 29.167 0.15229C28.9843 0.0471116 28.7762 -0.00543004 28.5655 0.000443696Z"
            fill="white" />
        <path
            d="M28.5392 0.0468552C28.3316 0.0477685 28.1282 0.105304 27.9509 0.213202C27.7735 0.3211 27.6289 0.475305 27.5326 0.659258C27.4363 0.843211 27.392 1.04988 27.4044 1.25716C27.4167 1.46444 27.4854 1.6645 27.6029 1.83568L36.7378 15.5428C36.8182 15.6737 36.9242 15.787 37.0494 15.8759C37.1746 15.9649 37.3165 16.0276 37.4665 16.0604C37.6165 16.0932 37.7716 16.0955 37.9225 16.0669C38.0734 16.0384 38.217 15.9798 38.3447 15.8945C38.4724 15.8091 38.5816 15.6989 38.6658 15.5704C38.7499 15.4419 38.8073 15.2977 38.8344 15.1465C38.8616 14.9953 38.858 14.8402 38.8238 14.6904C38.7896 14.5407 38.7256 14.3992 38.6356 14.2748L29.5006 0.567649C29.3968 0.40656 29.2541 0.27423 29.0857 0.182805C28.9172 0.0913803 28.7285 0.0439308 28.5369 0.0446242L28.5392 0.0468552Z"
            fill="white" />
        <path fill-rule="evenodd" clip-rule="evenodd"
            d="M20.5148 14.5895L18.3203 15.2155L27.4545 47.1958L29.6466 46.5701L20.5148 14.5895Z"
            fill="white" />
        <path fill-rule="evenodd" clip-rule="evenodd"
            d="M36.5443 14.5895L27.4102 46.5701L29.6024 47.1936L38.7365 15.2131L36.5443 14.5895Z"
            fill="white" />
        <path
            d="M10.2753 0.0267948C10.0875 0.0266412 9.90254 0.0728798 9.73684 0.161339C9.57114 0.249798 9.42981 0.37771 9.32538 0.533879L0.191239 14.2398C0.0529637 14.4476 -0.0134177 14.6951 0.00225379 14.9443C0.0179253 15.1935 0.114787 15.4307 0.278013 15.6195L8.53755 25.248C8.73438 25.4782 9.01458 25.6208 9.31649 25.6444C9.61841 25.6679 9.91731 25.5705 10.1474 25.3736C10.3776 25.1767 10.5201 24.8964 10.5437 24.5944C10.5672 24.2924 10.4699 23.9934 10.273 23.7631L2.57296 14.7904L10.8873 2.31111H46.2775L54.5896 14.7904L28.5801 45.0964L16.4774 30.9931C16.382 30.8727 16.2633 30.7729 16.1284 30.6995C15.9935 30.6261 15.8452 30.5806 15.6923 30.5659C15.5395 30.5512 15.3852 30.5673 15.2388 30.6136C15.0924 30.6599 14.9568 30.7353 14.8402 30.8353C14.7235 30.9352 14.6282 31.0576 14.56 31.1953C14.4918 31.3329 14.452 31.4828 14.443 31.6361C14.434 31.7895 14.4561 31.9429 14.5079 32.0876C14.5596 32.2322 14.64 32.3651 14.7442 32.478L27.7147 47.6001C27.8219 47.7255 27.9549 47.8261 28.1047 47.8952C28.2545 47.9642 28.4175 48 28.5824 48C28.7473 48 28.9103 47.9642 29.0601 47.8952C29.2099 47.8261 29.343 47.7255 29.4502 47.6001L56.8891 15.6195C57.052 15.4304 57.1484 15.1931 57.1637 14.9439C57.179 14.6947 57.1122 14.4474 56.9736 14.2398L47.8395 0.533879C47.735 0.37771 47.5937 0.249798 47.428 0.161339C47.2623 0.0728798 47.0773 0.0266412 46.8895 0.0267948H10.2753ZM11.7825 26.4337C11.5645 26.4384 11.3525 26.5052 11.1714 26.6266C10.9903 26.748 10.8477 26.9189 10.7605 27.1188C10.6734 27.3187 10.6452 27.5392 10.6794 27.7546C10.7136 27.9699 10.8087 28.171 10.9535 28.334L11.9629 29.5082C12.1597 29.7384 12.4399 29.8809 12.7418 29.9045C13.0437 29.928 13.3426 29.8309 13.5727 29.634C13.8029 29.4371 13.9454 29.1566 13.969 28.8546C13.9925 28.5526 13.8952 28.2536 13.6983 28.0234L12.689 26.8447C12.579 26.7124 12.4405 26.6069 12.2839 26.5357C12.1273 26.4645 11.9544 26.4296 11.7825 26.4337Z"
            fill="white" />
    </g>
</svg>