<svg width="72" height="72" viewBox="0 0 72 72" fill="none" xmlns="http://www.w3.org/2000/svg">
    <path
        d="M40.5 40.5C41.0967 40.5 41.669 40.2629 42.091 39.841C42.5129 39.419 42.75 38.8467 42.75 38.25C42.75 37.6533 42.5129 37.081 42.091 36.659C41.669 36.2371 41.0967 36 40.5 36H38.25V33.75C38.25 33.1533 38.0129 32.581 37.591 32.159C37.169 31.7371 36.5967 31.5 36 31.5C35.4033 31.5 34.831 31.7371 34.409 32.159C33.9871 32.581 33.75 33.1533 33.75 33.75V36C32.5565 36 31.4119 36.4741 30.568 37.318C29.7241 38.1619 29.25 39.3065 29.25 40.5V42.75C29.25 43.9435 29.7241 45.0881 30.568 45.932C31.4119 46.7759 32.5565 47.25 33.75 47.25H38.25V49.5H31.5C30.9033 49.5 30.331 49.7371 29.909 50.159C29.4871 50.581 29.25 51.1533 29.25 51.75C29.25 52.3467 29.4871 52.919 29.909 53.341C30.331 53.7629 30.9033 54 31.5 54H33.75V56.25C33.75 56.8467 33.9871 57.419 34.409 57.841C34.831 58.2629 35.4033 58.5 36 58.5C36.5967 58.5 37.169 58.2629 37.591 57.841C38.0129 57.419 38.25 56.8467 38.25 56.25V54C39.4435 54 40.5881 53.5259 41.432 52.682C42.2759 51.8381 42.75 50.6935 42.75 49.5V47.25C42.75 46.0565 42.2759 44.9119 41.432 44.068C40.5881 43.2241 39.4435 42.75 38.25 42.75H33.75V40.5H40.5Z"
        fill="white" />
    <path
        d="M20.25 69.75H51.75C54.7326 69.7464 57.592 68.56 59.701 66.451C61.81 64.342 62.9964 61.4826 63 58.5C63 57.9033 62.7629 57.331 62.341 56.909C61.919 56.4871 61.3467 56.25 60.75 56.25C60.1533 56.25 59.581 56.4871 59.159 56.909C58.7371 57.331 58.5 57.9033 58.5 58.5C58.5 60.2902 57.7888 62.0071 56.523 63.273C55.2571 64.5388 53.5402 65.25 51.75 65.25H20.25C18.4598 65.25 16.7429 64.5388 15.477 63.273C14.2112 62.0071 13.5 60.2902 13.5 58.5C13.5 57.9033 13.2629 57.331 12.841 56.909C12.419 56.4871 11.8467 56.25 11.25 56.25C10.6533 56.25 10.081 56.4871 9.65901 56.909C9.23705 57.331 9 57.9033 9 58.5C9.00357 61.4826 10.19 64.342 12.299 66.451C14.408 68.56 17.2674 69.7464 20.25 69.75ZM9 47.25V51.75C9 52.3467 9.23705 52.919 9.65901 53.341C10.081 53.7629 10.6533 54 11.25 54C11.8467 54 12.419 53.7629 12.841 53.341C13.2629 52.919 13.5 52.3467 13.5 51.75V47.25C13.5 41.2826 15.8705 35.5597 20.0901 31.3401C24.3097 27.1205 30.0326 24.75 36 24.75C41.9674 24.75 47.6903 27.1205 51.9099 31.3401C56.1295 35.5597 58.5 41.2826 58.5 47.25V51.75C58.5 52.3467 58.7371 52.919 59.159 53.341C59.581 53.7629 60.1533 54 60.75 54C61.3467 54 61.919 53.7629 62.341 53.341C62.7629 52.919 63 52.3467 63 51.75V47.25C62.9935 41.9011 61.4003 36.6745 58.422 32.2315C55.4437 27.7885 51.2143 24.329 46.269 22.2907C46.7114 21.6468 47.0137 20.9171 47.1564 20.1489C47.299 19.3807 47.2788 18.5911 47.097 17.8312C46.9153 17.0713 46.576 16.3581 46.1013 15.7375C45.6265 15.117 45.0267 14.6031 44.3408 14.229C46.2045 12.1831 47.2413 9.51753 47.25 6.75V4.5C47.25 3.90326 47.0129 3.33097 46.591 2.90901C46.169 2.48705 45.5967 2.25 45 2.25C44.4033 2.25 43.831 2.48705 43.409 2.90901C42.9871 3.33097 42.75 3.90326 42.75 4.5V6.75C42.75 8.54021 42.0388 10.2571 40.773 11.523C39.5071 12.7888 37.7902 13.5 36 13.5C34.2098 13.5 32.4929 12.7888 31.227 11.523C29.9612 10.2571 29.25 8.54021 29.25 6.75H38.25C38.8467 6.75 39.419 6.51295 39.841 6.09099C40.2629 5.66903 40.5 5.09674 40.5 4.5C40.5 3.90326 40.2629 3.33097 39.841 2.90901C39.419 2.48705 38.8467 2.25 38.25 2.25H27C26.4033 2.25 25.831 2.48705 25.409 2.90901C24.9871 3.33097 24.75 3.90326 24.75 4.5V6.75C24.7587 9.51753 25.7955 12.1831 27.6593 14.229C26.9733 14.6031 26.3735 15.117 25.8987 15.7375C25.424 16.3581 25.0847 17.0713 24.9029 17.8312C24.7212 18.5911 24.701 19.3807 24.8436 20.1489C24.9863 20.9171 25.2886 21.6468 25.731 22.2907C20.7857 24.329 16.5563 27.7885 13.578 32.2315C10.5997 36.6745 9.00649 41.9011 9 47.25ZM30.375 20.25C30.0766 20.25 29.7905 20.1315 29.5795 19.9205C29.3685 19.7095 29.25 19.4234 29.25 19.125C29.25 18.8266 29.3685 18.5405 29.5795 18.3295C29.7905 18.1185 30.0766 18 30.375 18H41.625C41.9234 18 42.2095 18.1185 42.4205 18.3295C42.6315 18.5405 42.75 18.8266 42.75 19.125C42.75 19.4234 42.6315 19.7095 42.4205 19.9205C42.2095 20.1315 41.9234 20.25 41.625 20.25H30.375Z"
        fill="white" />
</svg>