<svg width="49" height="61" viewBox="0 0 49 61" fill="none" xmlns="http://www.w3.org/2000/svg">
    <path
        d="M31.3903 28.8778L29.7992 30.4689L25.9814 34.2866L21.3631 38.9049L17.3703 42.8978C16.7248 43.5433 16.0593 44.1837 15.4239 44.8442L15.3939 44.8742C14.8385 45.4296 14.7984 46.4503 15.3939 46.9957C15.9943 47.5461 16.925 47.5911 17.5154 46.9957L19.1065 45.4046L22.9242 41.5869L27.5425 36.9686L31.5354 32.9757C32.1809 32.3302 32.8463 31.6898 33.4818 31.0293L33.5118 30.9993C34.0672 30.4439 34.1072 29.4232 33.5118 28.8778C32.9164 28.3274 31.9857 28.2823 31.3903 28.8778ZM19.5869 33.0658C19.5168 33.1358 19.4468 33.1959 19.3717 33.2609C19.1816 33.431 19.7069 33.0307 19.3917 33.2409C19.2366 33.346 19.0715 33.431 18.9014 33.5061L19.2616 33.356C18.9864 33.4711 18.7012 33.5511 18.406 33.5911C18.5411 33.5711 18.6712 33.5561 18.8063 33.5361C18.5361 33.5661 18.2659 33.5661 17.9907 33.5361C18.1258 33.5561 18.2559 33.5711 18.391 33.5911C18.0958 33.5511 17.8106 33.4711 17.5354 33.356L17.8957 33.5061C17.7255 33.431 17.5604 33.346 17.4053 33.2409C17.0901 33.0307 17.6105 33.431 17.4253 33.2609C17.3553 33.1959 17.2802 33.1358 17.2102 33.0658C17.1401 32.9957 17.0801 32.9257 17.015 32.8506C16.8449 32.6605 17.2452 33.1858 17.035 32.8706C16.93 32.7155 16.8449 32.5504 16.7698 32.3803L16.92 32.7405C16.8049 32.4653 16.7248 32.1801 16.6848 31.8849C16.7048 32.02 16.7198 32.1501 16.7398 32.2852C16.7098 32.015 16.7098 31.7448 16.7398 31.4696C16.7198 31.6047 16.7048 31.7348 16.6848 31.8699C16.7248 31.5747 16.8049 31.2895 16.92 31.0143L16.7698 31.3746C16.8449 31.2044 16.93 31.0393 17.035 30.8842C17.2452 30.569 16.8449 31.0894 17.015 30.9042C17.0801 30.8342 17.1401 30.7591 17.2102 30.6891C17.2802 30.619 17.3503 30.559 17.4253 30.4939C17.6155 30.3238 17.0901 30.7241 17.4053 30.5139C17.5604 30.4089 17.7255 30.3238 17.8957 30.2488L17.5354 30.3989C17.8106 30.2838 18.0958 30.2037 18.391 30.1637C18.2559 30.1837 18.1258 30.1987 17.9907 30.2187C18.2609 30.1887 18.5311 30.1887 18.8063 30.2187C18.6712 30.1987 18.5411 30.1837 18.406 30.1637C18.7012 30.2037 18.9864 30.2838 19.2616 30.3989L18.9014 30.2488C19.0715 30.3238 19.2366 30.4089 19.3917 30.5139C19.7069 30.7241 19.1866 30.3238 19.3717 30.4939C19.4418 30.559 19.5168 30.619 19.5869 30.6891C19.6569 30.7591 19.717 30.8292 19.782 30.9042C19.9521 31.0944 19.5518 30.569 19.762 30.8842C19.8671 31.0393 19.9521 31.2044 20.0272 31.3746L19.8771 31.0143C19.9922 31.2895 20.0722 31.5747 20.1122 31.8699C20.0922 31.7348 20.0772 31.6047 20.0572 31.4696C20.0872 31.7398 20.0872 32.01 20.0572 32.2852C20.0772 32.1501 20.0922 32.02 20.1122 31.8849C20.0722 32.1801 19.9922 32.4653 19.8771 32.7405L20.0272 32.3803C19.9521 32.5504 19.8671 32.7155 19.762 32.8706C19.5518 33.1858 19.9521 32.6655 19.782 32.8506C19.722 32.9257 19.6569 32.9957 19.5869 33.0658C19.0365 33.6262 18.9864 34.6369 19.5869 35.1873C20.1823 35.7327 21.123 35.7877 21.7084 35.1873C22.3438 34.5368 22.8442 33.6812 22.9893 32.7756C23.1594 31.7298 23.0393 30.7491 22.589 29.7834C21.8085 28.1222 19.8821 27.0114 18.0508 27.1966C17 27.3016 16.0994 27.6769 15.2888 28.3574C14.5883 28.9428 14.0679 29.8134 13.8478 30.6941C13.3574 32.6655 14.178 34.6819 15.8492 35.8077C17.6655 37.0336 20.1723 36.6833 21.7084 35.1823C22.2688 34.6319 22.2988 33.6011 21.7084 33.0608C21.1079 32.5104 20.1873 32.4803 19.5869 33.0658ZM31.7205 45.1844C31.6505 45.2545 31.5804 45.3145 31.5054 45.3796C31.3152 45.5497 31.8406 45.1494 31.5254 45.3596C31.3703 45.4646 31.2052 45.5497 31.035 45.6247L31.3953 45.4746C31.1201 45.5897 30.8349 45.6698 30.5397 45.7098C30.6748 45.6898 30.8049 45.6748 30.94 45.6548C30.6698 45.6848 30.3996 45.6848 30.1244 45.6548C30.2595 45.6748 30.3896 45.6898 30.5247 45.7098C30.2295 45.6698 29.9443 45.5897 29.6691 45.4746L30.0293 45.6247C29.8592 45.5497 29.6941 45.4646 29.539 45.3596C29.2237 45.1494 29.7441 45.5497 29.559 45.3796C29.4889 45.3145 29.4139 45.2545 29.3438 45.1844C29.2738 45.1144 29.2137 45.0443 29.1487 44.9693C28.9786 44.7791 29.3789 45.3045 29.1687 44.9893C29.0636 44.8342 28.9786 44.6691 28.9035 44.4989L29.0536 44.8592C28.9385 44.584 28.8585 44.2988 28.8185 44.0036C28.8385 44.1387 28.8535 44.2688 28.8735 44.4039C28.8435 44.1337 28.8435 43.8635 28.8735 43.5883C28.8535 43.7234 28.8385 43.8535 28.8185 43.9886C28.8585 43.6934 28.9385 43.4082 29.0536 43.133L28.9035 43.4932C28.9786 43.3231 29.0636 43.158 29.1687 43.0029C29.3789 42.6876 28.9786 43.208 29.1487 43.0229C29.2137 42.9528 29.2738 42.8778 29.3438 42.8077C29.4139 42.7377 29.4839 42.6776 29.559 42.6126C29.7491 42.4425 29.2237 42.8428 29.539 42.6326C29.6941 42.5275 29.8592 42.4425 30.0293 42.3674L29.6691 42.5175C29.9443 42.4024 30.2295 42.3224 30.5247 42.2824C30.3896 42.3024 30.2595 42.3174 30.1244 42.3374C30.3946 42.3074 30.6648 42.3074 30.94 42.3374C30.8049 42.3174 30.6748 42.3024 30.5397 42.2824C30.8349 42.3224 31.1201 42.4024 31.3953 42.5175L31.035 42.3674C31.2052 42.4425 31.3703 42.5275 31.5254 42.6326C31.8406 42.8428 31.3202 42.4425 31.5054 42.6126C31.5754 42.6776 31.6505 42.7377 31.7205 42.8077C31.7906 42.8778 31.8506 42.9478 31.9157 43.0229C32.0858 43.213 31.6855 42.6876 31.8957 43.0029C32.0007 43.158 32.0858 43.3231 32.1609 43.4932L32.0107 43.133C32.1258 43.4082 32.2059 43.6934 32.2459 43.9886C32.2259 43.8535 32.2109 43.7234 32.1909 43.5883C32.2209 43.8585 32.2209 44.1287 32.1909 44.4039C32.2109 44.2688 32.2259 44.1387 32.2459 44.0036C32.2059 44.2988 32.1258 44.584 32.0107 44.8592L32.1609 44.4989C32.0858 44.6691 32.0007 44.8342 31.8957 44.9893C31.6855 45.3045 32.0858 44.7841 31.9157 44.9693C31.8506 45.0443 31.7856 45.1144 31.7205 45.1844C31.1701 45.7448 31.1201 46.7555 31.7205 47.3059C32.316 47.8513 33.2566 47.9064 33.8421 47.3059C34.4775 46.6555 34.9779 45.7999 35.123 44.8942C35.2931 43.8485 35.173 42.8678 34.7227 41.9021C33.9421 40.2409 32.0157 39.1301 30.1844 39.3152C29.1337 39.4203 28.233 39.7956 27.4225 40.4761C26.722 41.0615 26.2016 41.9321 25.9814 42.8127C25.4911 44.7841 26.3117 46.8006 27.9829 47.9264C29.7992 49.1523 32.306 48.802 33.8421 47.3009C34.4025 46.7505 34.4325 45.7198 33.8421 45.1794C33.2366 44.629 32.321 44.599 31.7205 45.1844Z"
        fill="#111111" />
    <path
        d="M9.29297 0.882263H27.4004C27.6712 0.918626 27.9328 1.00605 28.1699 1.14203L28.292 1.21234H28.5752C28.795 1.32621 28.9991 1.46827 29.1797 1.63812L47.1572 19.6157C47.3274 19.7965 47.47 20.0009 47.584 20.2211V20.4496L47.6113 20.5317C47.6852 20.7514 47.7359 20.9783 47.7637 21.2084V51.353C47.7637 53.5995 46.8708 55.7537 45.2822 57.3422C43.6937 58.9308 41.5395 59.8237 39.293 59.8237H9.29297C7.04643 59.8237 4.89225 58.9308 3.30371 57.3422C1.71517 55.7537 0.822266 53.5995 0.822266 51.353V9.35297C0.822266 7.10643 1.71517 4.95225 3.30371 3.36371C4.89225 1.77516 7.04643 0.882263 9.29297 0.882263ZM9.29297 5.82367C8.35691 5.82367 7.45877 6.19498 6.79688 6.85687C6.13498 7.51877 5.76367 8.41691 5.76367 9.35297V51.353C5.76367 52.289 6.13498 53.1872 6.79688 53.8491C7.45877 54.511 8.35691 54.8823 9.29297 54.8823H39.293C40.229 54.8823 41.1272 54.511 41.7891 53.8491C42.451 53.1872 42.8223 52.289 42.8223 51.353V23.8237H33.293C31.0464 23.8237 28.8923 22.9308 27.3037 21.3422C25.7152 19.7537 24.8223 17.5995 24.8223 15.353V5.82367H9.29297ZM29.7637 15.353C29.7637 16.289 30.135 17.1872 30.7969 17.8491C31.4588 18.511 32.3569 18.8823 33.293 18.8823H39.3408L29.7637 9.30511V15.353Z"
        fill="black" stroke="#FCFCFC" stroke-width="1.05882" />
</svg>