<svg width="26" height="26" viewBox="0 0 26 26" fill="none" xmlns="http://www.w3.org/2000/svg">
<path d="M21.75 3H20.5V1.75C20.5 1 20 0.5 19.25 0.5C18.5 0.5 18 1 18 1.75V3H8V1.75C8 1 7.5 0.5 6.75 0.5C6 0.5 5.5 1 5.5 1.75V3H4.25C2.125 3 0.5 4.625 0.5 6.75V8H25.5V6.75C25.5 4.625 23.875 3 21.75 3ZM0.5 21.75C0.5 23.875 2.125 25.5 4.25 25.5H21.75C23.875 25.5 25.5 23.875 25.5 21.75V10.5H0.5V21.75ZM19.25 13C20 13 20.5 13.5 20.5 14.25C20.5 15 20 15.5 19.25 15.5C18.5 15.5 18 15 18 14.25C18 13.5 18.5 13 19.25 13ZM19.25 18C20 18 20.5 18.5 20.5 19.25C20.5 20 20 20.5 19.25 20.5C18.5 20.5 18 20 18 19.25C18 18.5 18.5 18 19.25 18ZM13 13C13.75 13 14.25 13.5 14.25 14.25C14.25 15 13.75 15.5 13 15.5C12.25 15.5 11.75 15 11.75 14.25C11.75 13.5 12.25 13 13 13ZM13 18C13.75 18 14.25 18.5 14.25 19.25C14.25 20 13.75 20.5 13 20.5C12.25 20.5 11.75 20 11.75 19.25C11.75 18.5 12.25 18 13 18ZM6.75 13C7.5 13 8 13.5 8 14.25C8 15 7.5 15.5 6.75 15.5C6 15.5 5.5 15 5.5 14.25C5.5 13.5 6 13 6.75 13ZM6.75 18C7.5 18 8 18.5 8 19.25C8 20 7.5 20.5 6.75 20.5C6 20.5 5.5 20 5.5 19.25C5.5 18.5 6 18 6.75 18Z" fill="#F0F0F0"/>
</svg>
