<svg width="77" height="77" viewBox="0 0 77 77" fill="none" xmlns="http://www.w3.org/2000/svg">
	<path d="M53.2728 12.0482C50.5421 12.0482 47.9912 12.8065 45.795 14.1039C28.7919 6.65396 8.70181 19.9724 9.00335 38.593C10.4612 73.8058 60.6723 73.799 62.1268 38.5927C73.3218 30.1246 67.4871 12.1474 53.2728 12.0482ZM35.5649 63.171C22.0035 63.171 10.9706 52.1453 10.9706 38.5927C10.6476 21.9326 28.3181 9.56028 43.8408 15.4659C42.5951 16.5033 41.5347 17.749 40.6854 19.1379C33.1051 15.2636 23.6059 21.2102 23.7598 29.7447C23.7596 35.2402 27.5275 39.8609 32.6136 41.1685V41.8567C26.4355 43.2134 21.7921 48.7288 21.7921 55.3059C21.7921 55.8466 22.2348 56.289 22.7759 56.289H48.354C48.895 56.289 49.3377 55.8466 49.3377 55.3059C49.3377 48.7288 44.6944 43.2134 38.5162 41.8567V41.1685C40.5634 40.6422 42.3925 39.5756 43.8513 38.1338C48.0696 41.8476 55.1477 42.6405 60.1275 39.8433C59.4737 52.8171 48.7067 63.171 35.5649 63.171ZM35.5649 39.5758C30.1443 39.5758 25.7272 35.1616 25.7272 29.7445C25.5572 22.7011 33.511 17.6916 39.7649 20.8796C37.3603 25.9926 38.5806 32.7984 42.4186 36.7513C40.6452 38.4876 38.2357 39.5758 35.5649 39.5758ZM63.2297 25.931L54.3757 34.7792C53.2774 35.9233 51.3007 35.9237 50.2024 34.7792L45.2835 29.8636C42.6047 27.0443 46.6327 23.0138 49.4569 25.693L52.2891 28.5233L59.0563 21.7604C61.879 19.0822 65.9097 23.1105 63.2297 25.931Z" fill="#C6D1DD" />
</svg>
