<svg width="61" height="61" viewBox="0 0 61 61" fill="none" xmlns="http://www.w3.org/2000/svg">
	<circle cx="30.5" cy="30.5" r="29.8167" fill="#181818" stroke="#1D1D1D" stroke-width="1.36668" />
	<path fill-rule="evenodd" clip-rule="evenodd" d="M47.8456 38.0081C48.278 38.2213 48.6103 38.6004 48.7702 39.0629C48.9135 39.4976 48.8936 39.9711 48.7144 40.3917C48.5352 40.8122 48.2095 41.1498 47.8005 41.339L40.5875 44.311C37.4453 45.6223 34.0512 46.1823 30.6647 45.9481C27.2782 45.714 23.9889 44.6919 21.0483 42.9601L20.0144 42.3624V33.8311H25.3841C27.4309 33.8311 28.5567 34.4822 29.3884 34.9633C29.8757 35.2451 30.2621 35.4686 30.6736 35.4686H39.2491C39.6742 35.4686 40.0819 35.6411 40.3825 35.9482C40.6831 36.2553 40.852 36.6718 40.852 37.1061C40.8469 37.5151 40.6959 37.9081 40.4272 38.2114C40.3246 38.3162 40.2439 38.4018 40.1512 38.4715C39.607 38.881 38.6511 38.7435 30.4332 38.7435C30.2206 38.7435 30.0168 38.8298 29.8665 38.9833C29.7162 39.1369 29.6318 39.3451 29.6318 39.5623C29.6318 39.7794 29.7162 39.9877 29.8665 40.1412C30.0168 40.2948 30.2206 40.381 30.4332 40.381C32.298 40.381 33.8074 40.3933 35.0394 40.4032C39.9389 40.4429 40.4492 40.4471 41.4611 39.505L46.4621 37.9248C46.916 37.765 47.4133 37.795 47.8456 38.0081ZM18.4115 44.4747H12V32.1936H18.4115V44.4747ZM14.6705 40.5948C14.5827 40.6763 14.5137 40.7766 14.4684 40.8886C14.3978 41.0635 14.3887 41.258 14.4425 41.439C14.4964 41.62 14.6099 41.7763 14.7638 41.8815C14.9177 41.9866 15.1026 42.0341 15.2869 42.0158C15.4712 41.9975 15.6436 41.9146 15.7748 41.7811C15.8589 41.6956 15.9233 41.5921 15.9635 41.478C16.0036 41.364 16.0185 41.2423 16.007 41.1217C15.9955 41.0011 15.958 40.8845 15.8971 40.7806C15.8362 40.6766 15.7534 40.5877 15.6548 40.5203C15.5562 40.4529 15.4442 40.4088 15.3269 40.391C15.2095 40.3732 15.0898 40.3823 14.9763 40.4175C14.8628 40.4528 14.7583 40.5133 14.6705 40.5948ZM40.4959 29.995C39.1779 30.8947 37.6284 31.3749 36.0433 31.3749C33.9178 31.3749 31.8792 30.5123 30.3762 28.9768C28.8733 27.4414 28.0289 25.3589 28.0289 23.1874C28.0289 21.5681 28.4989 19.9852 29.3795 18.6387C30.2602 17.2923 31.5119 16.2429 32.9763 15.6232C34.4408 15.0035 36.0522 14.8414 37.6068 15.1573C39.1615 15.4732 40.5895 16.253 41.7104 17.398C42.8312 18.5431 43.5945 20.0019 43.9037 21.5901C44.213 23.1783 44.0543 24.8246 43.4477 26.3206C42.8411 27.8167 41.8138 29.0954 40.4959 29.995ZM33.7836 19.1895C33.3209 19.1895 32.9458 19.4842 32.9458 19.8477C32.9458 20.2113 33.3209 20.506 33.7836 20.506H34.6215C35.2417 20.506 35.7833 20.7708 36.073 21.1643H33.7836C33.3209 21.1643 32.9458 21.4591 32.9458 21.8226C32.9458 22.1862 33.3209 22.4809 33.7836 22.4809H36.073C35.7833 22.8745 35.2417 23.1392 34.6215 23.1392H33.7836C33.4746 23.1392 33.1907 23.2729 33.045 23.4869C32.8991 23.701 32.9151 23.9607 33.0865 24.1627L36.4379 28.1125C36.6945 28.415 37.2147 28.4967 37.5997 28.295C37.9848 28.0934 38.0888 27.6847 37.8321 27.3822L35.3029 24.4014C36.5545 24.1982 37.5509 23.4468 37.8673 22.4809H38.8107C39.2734 22.4809 39.6485 22.1862 39.6485 21.8226C39.6485 21.4591 39.2734 21.1643 38.8107 21.1643H37.8673C37.7907 20.9308 37.6745 20.7098 37.5245 20.506H38.8107C39.2734 20.506 39.6485 20.2113 39.6485 19.8477C39.6485 19.4842 39.2734 19.1895 38.8107 19.1895H33.7836Z" fill="#C1C1C1" />
</svg>
