<svg width="61" height="61" viewBox="0 0 61 61" fill="none" xmlns="http://www.w3.org/2000/svg">
	<circle cx="30.5" cy="30.5" r="29.8167" fill="#181818" stroke="#1D1D1D" stroke-width="1.36668" />
	<path d="M47.575 22.5282L45.0812 10.7423C45.0516 10.5938 44.9625 10.5048 44.8734 10.4751C44.814 10.4157 44.6953 10.386 44.5172 10.4157C44.4578 10.4157 44.4281 10.4454 44.3687 10.4751L34.0969 16.6204C33.889 16.7391 33.8 17.036 33.9484 17.2438C34.0078 17.3329 34.0672 17.3923 34.1562 17.4219L36.9765 18.6391L36.4125 20.0938C36.2344 20.5985 31.9297 31.5532 14.7703 31.5532C14.1172 31.5532 13.4047 31.5235 12.7219 31.4938H12.6328C12.5734 31.4938 12.5437 31.5235 12.4844 31.5532C12.4547 31.5829 12.425 31.6423 12.425 31.7016C12.425 31.7907 12.4844 31.8798 12.5734 31.9095L12.6328 31.9391C16.3437 33.186 20.2031 33.8391 24.1219 33.8985C38.2828 33.8985 43.3594 23.3594 43.4187 23.2407L44.1015 21.786L46.9812 23.0329C47.1 23.0923 47.2484 23.0626 47.3078 23.0329C47.3969 23.0032 47.4859 22.9438 47.5453 22.7954C47.6047 22.7063 47.6047 22.6173 47.575 22.5282ZM14.4437 47.6141H21.8359V36.8969C19.3422 36.7188 16.8781 36.3329 14.4437 35.7094V47.6141ZM38.164 33.1266V47.6141H45.5562V25.7938H45.5266C44.4578 27.486 42.1125 30.6032 38.164 33.1266ZM26.2891 47.6141H33.6812V35.3532C31.5437 36.1548 29.1094 36.7188 26.2891 36.9266V47.6141Z" fill="#E4E4E4" />
</svg>
