<svg width="103" height="49" viewBox="0 0 103 49" fill="none" xmlns="http://www.w3.org/2000/svg">
<path d="M85.8729 29.5245C86.7854 31.5155 87.8328 34.0768 89.0149 37.2085H84.9396C84.4626 35.5701 84.0789 34.3257 83.7886 33.4754C82.005 36.1715 79.8896 37.5196 77.4423 37.5196C75.4306 37.5196 73.8129 36.7833 72.5893 35.3108C71.3657 33.8176 70.7539 31.754 70.7539 29.1201C70.7539 26.4862 71.3657 24.433 72.5893 22.9605C73.8337 21.4673 75.4513 20.7207 77.4423 20.7207C78.7282 20.7207 79.8481 21.0421 80.8021 21.685C81.7561 22.3072 82.762 23.5516 83.8197 25.4181C84.0686 24.4849 84.4004 23.0227 84.8152 21.0318H88.7038C87.7913 24.4123 86.8476 27.2432 85.8729 29.5245ZM82.4509 29.6179C81.5798 27.4195 80.771 25.9055 80.0244 25.0759C79.2985 24.2256 78.5104 23.8005 77.6601 23.8005C76.789 23.8005 76.0943 24.236 75.5758 25.107C75.078 25.9781 74.8291 27.3158 74.8291 29.1201C74.8291 30.883 75.1091 32.2103 75.6691 33.1021C76.2291 33.9939 76.9549 34.4398 77.8467 34.4398C79.5888 34.4398 81.1236 32.8325 82.4509 29.6179Z" fill="#4A9EFF"/>
<path d="M8.31298 37.6837C7.06445 37.6837 5.94548 37.4481 4.95608 36.977C3.99024 36.4823 3.22463 35.8227 2.65926 34.9982C2.11744 34.1737 1.84653 33.2432 1.84653 32.2066C1.84653 30.9345 2.17633 29.9334 2.83594 29.2031C3.49554 28.4493 4.56739 27.9074 6.05149 27.5776C7.53559 27.2478 9.52618 27.0829 12.0232 27.0829H13.79V29.6271H12.0586C10.9514 29.6271 10.0209 29.6742 9.26705 29.7685C8.51322 29.8391 7.90073 29.9687 7.42959 30.1572C6.982 30.3221 6.6522 30.5576 6.44019 30.8639C6.25173 31.1701 6.1575 31.547 6.1575 31.9946C6.1575 32.772 6.42841 33.4081 6.97022 33.9028C7.51204 34.3975 8.26587 34.6448 9.23171 34.6448C10.0091 34.6448 10.6923 34.4681 11.2812 34.1148C11.8937 33.7379 12.3766 33.2314 12.73 32.5953C13.0833 31.9593 13.26 31.229 13.26 30.4045V26.3409C13.26 25.163 13.0009 24.315 12.4826 23.7967C11.9643 23.2785 11.0927 23.0193 9.86776 23.0193C8.90191 23.0193 7.91251 23.1725 6.89955 23.4787C5.88659 23.7614 4.86185 24.209 3.82534 24.8215L2.55325 21.8179C3.16574 21.3939 3.88423 21.0287 4.70873 20.7225C5.55679 20.3927 6.44019 20.1454 7.35892 19.9805C8.3012 19.792 9.1846 19.6978 10.0091 19.6978C11.7052 19.6978 13.0951 19.9569 14.1787 20.4752C15.2859 20.9934 16.1104 21.7826 16.6522 22.8427C17.194 23.8792 17.4649 25.2219 17.4649 26.8709V37.3303H13.3307V33.6554H13.6133C13.4484 34.4799 13.1186 35.1984 12.6239 35.8109C12.1528 36.3998 11.5521 36.8592 10.8218 37.189C10.0915 37.5188 9.25527 37.6837 8.31298 37.6837ZM27.2485 37.6837C25.1991 37.6837 23.6796 37.1301 22.6902 36.0229C21.7244 34.8922 21.2415 33.2432 21.2415 31.0759V12.4186H25.6584V30.8639C25.6584 31.547 25.7527 32.136 25.9411 32.6307C26.1531 33.1018 26.4594 33.4552 26.8598 33.6907C27.2603 33.9263 27.755 34.0441 28.344 34.0441C28.6031 34.0441 28.8622 34.0323 29.1213 34.0088C29.3805 33.9852 29.6278 33.9381 29.8634 33.8674L29.7927 37.3657C29.3687 37.4599 28.9447 37.5306 28.5206 37.5777C28.1202 37.6483 27.6961 37.6837 27.2485 37.6837ZM31.8187 43.6908V20.0511H36.1297V23.6907H35.7763C36.1297 22.4893 36.8482 21.5234 37.9318 20.7932C39.039 20.0629 40.3229 19.6978 41.7834 19.6978C43.2911 19.6978 44.6103 20.0629 45.741 20.7932C46.8953 21.5234 47.7905 22.56 48.4265 23.9027C49.0626 25.2219 49.3806 26.812 49.3806 28.6731C49.3806 30.5105 49.0626 32.1124 48.4265 33.4787C47.7905 34.8215 46.9071 35.858 45.7764 36.5883C44.6456 37.3185 43.3146 37.6837 41.7834 37.6837C40.3464 37.6837 39.0861 37.3303 38.0025 36.6236C36.9189 35.8933 36.1886 34.951 35.8117 33.7967H36.2357V43.6908H31.8187ZM40.5467 34.3268C41.8659 34.3268 42.9259 33.8556 43.7269 32.9133C44.5278 31.9475 44.9283 30.5341 44.9283 28.6731C44.9283 26.7885 44.5278 25.3868 43.7269 24.4681C42.9259 23.5258 41.8659 23.0547 40.5467 23.0547C39.2275 23.0547 38.1674 23.5258 37.3664 24.4681C36.5655 25.3868 36.165 26.7885 36.165 28.6731C36.165 30.5341 36.5655 31.9475 37.3664 32.9133C38.1674 33.8556 39.2275 34.3268 40.5467 34.3268ZM52.2997 37.3303V12.4186H56.7167V23.514H56.222C56.7402 22.2655 57.5412 21.3232 58.6248 20.6872C59.732 20.0276 60.9805 19.6978 62.3704 19.6978C63.7603 19.6978 64.9028 19.9569 65.7979 20.4752C66.6931 20.9934 67.3645 21.7826 67.8121 22.8427C68.2597 23.8792 68.4835 25.1984 68.4835 26.8003V37.3303H64.0665V27.0123C64.0665 26.1171 63.9487 25.3868 63.7131 24.8215C63.5011 24.2561 63.1595 23.8438 62.6884 23.5847C62.2408 23.302 61.6637 23.1607 60.9569 23.1607C60.1089 23.1607 59.3668 23.3491 58.7308 23.726C58.0947 24.0794 57.6 24.5977 57.2467 25.2808C56.8933 25.9404 56.7167 26.7178 56.7167 27.613V37.3303H52.2997Z" fill="white"/>
<path d="M89.9586 6.34626C91.4604 5.19785 93.1035 4.5088 94.8173 4.5088C97.2378 4.5088 98.9515 5.76322 98.9515 7.70669C98.9515 9.03178 97.9798 10.4275 96.637 11.8056L93.8985 14.6678H99.3756V17H90.2766V15.0919L94.7466 10.3569C95.5063 9.57949 96.0363 8.71376 96.0363 8.11305C96.0363 7.33566 95.4356 6.8763 94.4109 6.8763C93.3862 6.8763 92.1317 7.47701 91.0363 8.43107L89.9586 6.34626Z" fill="#4A9EFF"/>
</svg>
