<svg width="58" height="23" viewBox="0 0 58 23" fill="none" xmlns="http://www.w3.org/2000/svg">
	<path d="M49.9849 13.5493C49.7287 14.2317 49.7359 14.9884 50.0227 15.6585C50.2799 16.2593 50.5526 16.926 50.8409 17.6585C51.1203 18.3683 50.5927 19.1312 49.8299 19.1312H49.6302C49.2634 19.1312 48.9015 18.7542 48.7963 18.4028C48.6 17.7465 47.7655 17.7582 47.2601 18.2207C46.4637 18.9497 45.5775 19.3142 44.6016 19.3142C43.4184 19.3142 42.4669 18.8811 41.7473 18.0151C41.0276 17.1368 40.6677 15.9231 40.6677 14.374C40.6677 12.8249 41.0276 11.6173 41.7473 10.7512C42.4791 9.87297 43.4306 9.43384 44.6016 9.43384C45.3578 9.43384 46.0165 9.62291 46.5776 10.001C46.7884 10.1385 47.0035 10.3276 47.2229 10.5683C47.7124 11.1056 48.6109 11.1456 48.7645 10.4352C48.8457 10.0593 49.2135 9.61681 49.598 9.61681H49.8156C50.5262 9.61681 51.0436 10.292 50.8412 10.9731C50.5606 11.9174 50.2752 12.7762 49.9849 13.5493ZM45.8668 17.1579C47.464 16.0372 47.4255 13.4457 46.1202 11.9954C45.6933 11.4953 45.2298 11.2452 44.7297 11.2452C44.2173 11.2452 43.8087 11.5014 43.5038 12.0137C43.211 12.526 43.0646 13.3128 43.0646 14.374C43.0646 15.4108 43.2293 16.1915 43.5587 16.716C43.888 17.2405 44.3149 17.5028 44.8394 17.5028C45.1967 17.5028 45.5392 17.3878 45.8668 17.1579Z" fill="#0076FF" />
	<path d="M3.80325 19.4669C3.06893 19.4669 2.41081 19.3284 1.82889 19.0513C1.26082 18.7603 0.810529 18.3724 0.478004 17.8874C0.159335 17.4025 0 16.8552 0 16.2456C0 15.4974 0.193973 14.9086 0.581919 14.479C0.969864 14.0357 1.60028 13.717 2.47315 13.523C3.34603 13.3291 4.5168 13.2321 5.98545 13.2321H6.27641C6.68962 13.2321 7.02459 13.5671 7.02459 13.9803C7.02459 14.3935 6.68962 14.7284 6.27641 14.7284H6.00623C5.35504 14.7284 4.80776 14.7562 4.36439 14.8116C3.92102 14.8531 3.56079 14.9293 3.28368 15.0402C3.02043 15.1372 2.82646 15.2757 2.70176 15.4558C2.59092 15.636 2.5355 15.8576 2.5355 16.1209C2.5355 16.5781 2.69484 16.9522 3.01351 17.2432C3.33218 17.5341 3.77554 17.6796 4.34361 17.6796C4.80083 17.6796 5.20263 17.5757 5.54901 17.3679C5.90924 17.1462 6.19328 16.8483 6.4011 16.4742C6.60893 16.1001 6.71285 15.6706 6.71285 15.1857V12.7956C6.71285 12.1029 6.56044 11.6041 6.25562 11.2993C5.95081 10.9945 5.43817 10.8421 4.7177 10.8421C4.14963 10.8421 3.56772 10.9321 2.97194 11.1122C2.70363 11.1871 2.43392 11.2817 2.1628 11.3959C1.61605 11.6262 0.958163 11.4164 0.726784 10.8701C0.545563 10.4422 0.687185 9.93871 1.10551 9.7364C1.28715 9.64855 1.47978 9.56681 1.68341 9.49117C2.18219 9.2972 2.70176 9.15172 3.24212 9.05474C3.79633 8.94389 4.3159 8.88847 4.80083 8.88847C5.7984 8.88847 6.61586 9.04088 7.2532 9.34569C7.90439 9.65051 8.38933 10.1147 8.708 10.7381C9.02667 11.3478 9.186 12.1375 9.186 13.1074V18.0433C9.186 18.7148 8.64167 19.2591 7.97021 19.2591H7.83512C7.23826 19.2591 6.75441 18.7752 6.75441 18.1784V17.1726C6.75441 17.1312 6.78795 17.0977 6.82931 17.0977C6.87658 17.0977 6.91207 17.1409 6.90155 17.187C6.7993 17.6347 6.6117 18.0275 6.33876 18.3654C6.06165 18.7118 5.70834 18.982 5.27883 19.176C4.84932 19.3699 4.35746 19.4669 3.80325 19.4669Z" fill="#292929" />
	<path d="M14.9402 19.4669C13.7348 19.4669 12.8412 19.1413 12.2593 18.4901C11.6912 17.8251 11.4072 16.8552 11.4072 15.5805V5.90614C11.4072 5.18876 11.9887 4.60722 12.7061 4.60722C13.4235 4.60722 14.005 5.18876 14.005 5.90614V15.4558C14.005 15.8576 14.0604 16.204 14.1713 16.495C14.296 16.7721 14.4761 16.9799 14.7116 17.1185C14.9472 17.257 15.2381 17.3263 15.5845 17.3263C15.7369 17.3263 15.8893 17.3194 16.0417 17.3055C16.2607 17.2856 16.4736 17.4475 16.4692 17.6673L16.4517 18.5309C16.4429 18.9705 16.135 19.3543 15.6981 19.4035C15.6949 19.4039 15.6917 19.4042 15.6884 19.4046C15.4529 19.4461 15.2035 19.4669 14.9402 19.4669Z" fill="#292929" />
	<path d="M18.9271 23C18.2098 23 17.6282 22.4184 17.6282 21.7011V10.3641C17.6282 9.66389 18.1958 9.0963 18.896 9.0963H19.0934C19.6845 9.0963 20.1637 9.5755 20.1637 10.1666V11.148C20.1637 11.1971 20.1239 11.2369 20.0748 11.2369C20.0154 11.2369 19.9727 11.1798 19.9915 11.1235C20.2101 10.4693 20.6208 9.93902 21.2236 9.53274C21.8748 9.10323 22.6299 8.88847 23.489 8.88847C24.3757 8.88847 25.1516 9.10323 25.8166 9.53274C26.4955 9.96225 27.022 10.5719 27.3961 11.3616C27.7702 12.1375 27.9573 13.0727 27.9573 14.1673C27.9573 15.248 27.7702 16.1902 27.3961 16.9938C27.022 17.7835 26.5025 18.3931 25.8374 18.8227C25.1724 19.2522 24.3895 19.4669 23.489 19.4669C22.6438 19.4669 21.9025 19.2591 21.2652 18.8434C20.6711 18.443 20.2575 17.9343 20.0246 17.3172C19.9994 17.2505 20.0499 17.1808 20.1212 17.1808C20.1791 17.1808 20.2261 17.2278 20.2261 17.2857V21.7011C20.2261 22.4184 19.6445 23 18.9271 23ZM22.7616 17.4926C23.5374 17.4926 24.1609 17.2155 24.632 16.6612C25.1031 16.0932 25.3386 15.2619 25.3386 14.1673C25.3386 13.0589 25.1031 12.2345 24.632 11.6942C24.1609 11.1399 23.5374 10.8628 22.7616 10.8628C21.9857 10.8628 21.3622 11.1399 20.8911 11.6942C20.42 12.2345 20.1845 13.0589 20.1845 14.1673C20.1845 15.2619 20.42 16.0932 20.8911 16.6612C21.3622 17.2155 21.9857 17.4926 22.7616 17.4926Z" fill="#292929" />
	<path d="M30.973 19.2591C30.2557 19.2591 29.6741 18.6775 29.6741 17.9602V5.90614C29.6741 5.18876 30.2557 4.60722 30.973 4.60722C31.6904 4.60722 32.272 5.18876 32.272 5.90614V11.0165C32.272 11.0809 32.2198 11.133 32.1555 11.133C32.0724 11.133 32.0162 11.0486 32.0513 10.9733C32.3563 10.3178 32.804 9.81685 33.3942 9.47039C34.0454 9.08245 34.7798 8.88847 35.5972 8.88847C36.4147 8.88847 37.0866 9.04088 37.6131 9.34569C38.1396 9.65051 38.5345 10.1147 38.7978 10.7381C39.061 11.3478 39.1926 12.1237 39.1926 13.0658V17.9602C39.1926 18.6775 38.6111 19.2591 37.8937 19.2591C37.1763 19.2591 36.5948 18.6775 36.5948 17.9602V13.1905C36.5948 12.664 36.5255 12.2345 36.387 11.902C36.2623 11.5695 36.0614 11.327 35.7843 11.1746C35.521 11.0083 35.1816 10.9252 34.7659 10.9252C34.2671 10.9252 33.8307 11.036 33.4566 11.2577C33.0825 11.4655 32.7915 11.7704 32.5837 12.1722C32.3759 12.5601 32.272 13.0173 32.272 13.5438V17.9602C32.272 18.6775 31.6904 19.2591 30.973 19.2591Z" fill="#292929" />
	<path d="M52.097 1.56738C51.9515 1.28583 52.0268 0.936813 52.2939 0.766102C53.052 0.281425 53.8631 0 54.7031 0C56.1267 0 57.1347 0.737789 57.1347 1.88084C57.1347 2.6602 56.5631 3.48112 55.7734 4.29165L55.7231 4.34421C55.1363 4.95752 55.571 5.97506 56.4198 5.97506H56.6982C57.077 5.97506 57.3841 6.28211 57.3841 6.66089C57.3841 7.03966 57.077 7.34672 56.6982 7.34672H52.8356C52.3921 7.34672 52.0325 6.98717 52.0325 6.54364C52.0325 6.33864 52.1109 6.14141 52.2516 5.99235L54.6615 3.43955C55.1084 2.98233 55.4201 2.47315 55.4201 2.11985C55.4201 1.66262 55.0668 1.39245 54.4641 1.39245C54.0638 1.39245 53.6039 1.5483 53.1514 1.81739C52.7871 2.03399 52.2917 1.94384 52.097 1.56738Z" fill="#0076FF" />
</svg>
