<svg width="61" height="61" viewBox="0 0 61 61" fill="none" xmlns="http://www.w3.org/2000/svg">
<circle cx="30.5" cy="30.5" r="29.8167" fill="#181818" stroke="#1D1D1D" stroke-width="1.36668"/>
<path d="M22.8279 15.125H38.1555V21.5582H36.9332V17.002C36.9268 16.8342 36.8573 16.6749 36.7385 16.5561C36.6197 16.4373 36.4604 16.3677 36.2925 16.3614H24.7574C24.5896 16.3677 24.4303 16.4373 24.3115 16.5561C24.1927 16.6749 24.1232 16.8342 24.1168 17.002V21.5569H22.8279V15.125ZM11.2812 22.8394H49.7188V34.3707H38.1555C37.8275 30.4321 34.5218 27.3238 30.5 27.3238C26.4769 27.3238 23.1712 30.4321 22.8445 34.3707H11.2812V22.8394ZM27.3174 30.5V30.5397H27.302V31.821H28.6178C29.8158 31.821 30.418 32.3873 30.6345 33.0894H27.3315V34.3707H30.6345C30.4167 35.0741 29.8145 35.6391 28.6178 35.6391H27.302V36.9203H27.68L31.5878 40.7769L32.4898 39.8647L29.4186 36.8358C30.8088 36.5462 31.7031 35.5123 31.9491 34.3707H33.698V33.0894H31.9491C31.8415 32.61 31.6239 32.1622 31.3136 31.7812H33.6839V30.5H27.3174ZM11.2812 35.6519H22.8445C23.1725 39.5905 26.4782 42.6988 30.5 42.6988C34.5218 42.6988 37.8275 39.5905 38.1555 35.6519H49.7188V43.3394C49.7188 45.4804 48.0147 47.1832 45.875 47.1832H15.125C12.9853 47.1832 11.2812 45.4804 11.2812 43.3394V35.6519Z" fill="#E4E4E4"/>
</svg>
