<svg width="34" height="26" viewBox="0 0 34 26" fill="none" xmlns="http://www.w3.org/2000/svg">
<path d="M13.75 0C12.5583 0 11.5833 0.975 11.5833 2.16667V3.25H12.6667V2.16667C12.6667 1.55675 13.1401 1.08333 13.75 1.08333H20.25C20.8599 1.08333 21.3333 1.55675 21.3333 2.16667V3.25H22.4167V2.16667C22.4167 0.975 21.4417 0 20.25 0H13.75ZM0.75 4.33333V13.3618C0.75 13.9718 1.22342 14.4452 1.83333 14.4452H9.71242C10.0721 10.9038 13.0567 8.125 16.7021 8.125C20.3746 8.125 23.422 10.8572 23.7329 14.4452H32.1667C32.7766 14.4452 33.25 13.9718 33.25 13.3618V4.33333H0.75ZM16.7021 9.20833C15.92 9.2069 15.1453 9.36015 14.4227 9.65928C13.7001 9.9584 13.0437 10.3975 12.4914 10.9513C11.9392 11.5051 11.5019 12.1626 11.2047 12.886C10.9076 13.6095 10.7564 14.3846 10.76 15.1667C10.7563 15.9489 10.9073 16.7241 11.2044 17.4478C11.5015 18.1714 11.9387 18.8292 12.491 19.3831C13.0433 19.9371 13.6996 20.3764 14.4224 20.6757C15.1451 20.975 15.9198 21.1285 16.7021 21.1272C20.0052 21.1272 22.6788 18.4611 22.6788 15.1667V15.0475C22.6788 11.7552 20.0171 9.20833 16.7021 9.20833ZM16.1853 10.2917H17.2687V11.4346C17.8038 11.5646 18.3011 11.8603 18.6445 12.3403C18.8937 12.6848 19.0345 13.0997 19.0334 13.5352H17.9501C17.9483 13.3339 17.8839 13.1382 17.7659 12.9751H17.7638C17.3597 12.4107 16.3706 12.2958 15.8105 12.7151C15.8059 12.7191 15.8012 12.7231 15.7964 12.727C15.4682 12.9556 15.2829 13.4312 15.3945 13.793L15.3978 13.8038C15.5343 14.2838 16.1128 14.6445 16.6468 14.6337H16.7725C17.7681 14.6152 18.7799 15.21 19.0789 16.2435C19.3411 17.1058 18.9717 18.0072 18.2686 18.5033C17.9711 18.7195 17.6291 18.8664 17.2676 18.9334V20.0417H16.1842V18.9096C15.626 18.7861 15.1318 18.4633 14.7943 18.0018C14.5412 17.6539 14.4046 17.2349 14.4043 16.8047H15.4877C15.4904 17.0061 15.5555 17.2018 15.674 17.3647C16.0781 17.9281 17.0672 18.0429 17.6273 17.6248L17.6424 17.6139C17.9707 17.3864 18.1559 16.9097 18.0432 16.5479L18.04 16.5371C17.9035 16.0583 17.3272 15.6975 16.7942 15.7083H16.6642C15.6686 15.7268 14.6568 15.132 14.3577 14.0985C14.0956 13.2362 14.465 12.3348 15.1692 11.8387C15.4736 11.6112 15.8235 11.4736 16.1842 11.4053V10.2917H16.1853ZM0.75 15.2241V23.8333C0.75 25.0434 1.70658 26 2.91667 26H31.0833C32.2934 26 33.25 25.0434 33.25 23.8333V15.2241C32.9226 15.4207 32.5485 15.5258 32.1667 15.5285H23.7438C23.6468 17.3314 22.8629 19.0286 21.5532 20.2714C20.2436 21.5142 18.5076 22.2081 16.7021 22.2105C12.9353 22.2105 9.88467 19.2389 9.69617 15.5285H1.83333C1.43683 15.5285 1.07067 15.4115 0.75 15.2241Z" fill="#F0F0F0"/>
</svg>
