<svg width="20" height="20" viewBox="0 0 20 20" fill="none" xmlns="http://www.w3.org/2000/svg">
	<g clip-path="url(#clip0_2001_604)">
		<path d="M1.66602 10.17C1.66602 8.26299 1.66602 7.30948 2.09868 6.51903C2.53135 5.72859 3.3218 5.23801 4.90271 4.25685L6.56938 3.22247C8.2405 2.18532 9.07607 1.66675 9.99935 1.66675C10.9226 1.66675 11.7582 2.18532 13.4293 3.22247L15.096 4.25685C16.6769 5.23801 17.4673 5.72859 17.9 6.51903C18.3327 7.30948 18.3327 8.26299 18.3327 10.17V11.4375C18.3327 14.6883 18.3327 16.3137 17.3564 17.3235C16.3801 18.3334 14.8087 18.3334 11.666 18.3334H8.33268C5.18999 18.3334 3.61864 18.3334 2.64233 17.3235C1.66602 16.3137 1.66602 14.6883 1.66602 11.4375V10.17Z" stroke="white" stroke-width="1.5" />
		<path d="M10 12.5L10 15" stroke="white" stroke-width="1.5" stroke-linecap="round" />
	</g>
	<defs>
		<clipPath id="clip0_2001_604">
			<rect width="20" height="20" fill="white" />
		</clipPath>
	</defs>
</svg>
