<svg width="61" height="61" viewBox="0 0 61 61" fill="none" xmlns="http://www.w3.org/2000/svg">
	<circle cx="30.5" cy="30.5" r="29.8167" fill="#181818" stroke="#1D1D1D" stroke-width="1.36668" />
	<path d="M15.0837 18.9148L15.0836 18.9149C13.872 20.0084 13.25 21.597 13.25 23.7217L15.0837 18.9148ZM15.0837 18.9148C16.3054 17.8117 17.9172 17.25 19.9437 17.25C21.9425 17.25 23.5417 17.8111 24.7647 18.9149C25.9764 20.0084 26.598 21.597 26.5973 23.7217V23.7218M15.0837 18.9148L26.5973 23.7218M26.5973 23.7218C26.5973 25.8203 25.9763 27.4038 24.7637 28.5103M26.5973 23.7218L24.7637 28.5103M44.9345 33.4502L44.9344 33.4501C43.7259 32.3349 42.1348 31.7681 40.1367 31.7688C38.1386 31.7694 36.5324 32.3362 35.2955 33.452C34.07 34.5587 33.4429 36.1418 33.4429 38.2395L44.9345 33.4502ZM44.9345 33.4502C46.1349 34.5566 46.75 36.1402 46.75 38.2396M44.9345 33.4502L46.75 38.2396M24.7637 28.5103C23.5414 29.6257 21.9426 30.1926 19.9437 30.1926M24.7637 28.5103L19.9437 30.1926M42.0174 38.2396V38.2398C42.0166 39.0337 41.8599 39.6787 41.509 40.1368C41.349 40.3564 41.136 40.5338 40.8894 40.6542C40.6427 40.7747 40.3695 40.8346 40.0938 40.8292C39.4709 40.8285 38.9701 40.6061 38.636 40.1399C38.3125 39.6884 38.1702 39.0418 38.1702 38.2397L42.0174 38.2396ZM42.0174 38.2396C42.0174 37.469 41.8597 36.8379 41.509 36.381M42.0174 38.2396L41.509 36.381M19.9437 30.1926C17.9457 30.1926 16.3399 29.6258 15.1038 28.5094M19.9437 30.1926L15.1038 28.5094M15.1038 28.5094C13.8782 27.4027 13.2507 25.8195 13.25 23.7218L15.1038 28.5094ZM46.75 38.2396C46.75 40.3664 46.1342 41.9628 44.9345 43.0686M46.75 38.2396L44.9345 43.0686M44.9345 43.0686C43.7252 44.1832 42.1341 44.75 40.1366 44.75M44.9345 43.0686L40.1366 44.75M40.1366 44.75C38.1371 44.75 36.531 44.1832 35.2956 43.0669M40.1366 44.75L35.2956 43.0669M35.2956 43.0669C34.0714 41.9607 33.4436 40.3648 33.4429 38.2396L35.2956 43.0669ZM41.509 36.381C41.3489 36.1604 41.1354 35.9822 40.8881 35.8612C40.6405 35.7401 40.3662 35.6799 40.0895 35.6856C39.469 35.6862 38.9692 35.9046 38.6353 36.3647C38.3118 36.8106 38.1699 37.4488 38.1702 38.2396L41.509 36.381ZM18.0186 23.7218C18.0186 24.5118 18.1575 25.1491 18.4741 25.5946C18.8009 26.0546 19.2912 26.2747 19.901 26.2758C20.1805 26.2856 20.4586 26.2304 20.7119 26.1144C20.9663 25.9978 21.1886 25.8231 21.3589 25.6045C21.7134 25.157 21.8703 24.5152 21.871 23.721C21.8717 22.9267 21.715 22.2845 21.3588 21.8369C21.1885 21.6183 20.9664 21.4435 20.7122 21.3268C20.4588 21.2105 20.1806 21.1551 19.901 21.1647C19.291 21.1666 18.8007 21.3874 18.474 21.8478C18.1575 22.2937 18.0186 22.9314 18.0186 23.7218ZM33.976 17.6732H40.9086L26.062 44.3268H19.1305L33.976 17.6732Z" fill="#E4E4E4" stroke="#181818" stroke-width="0.5" />
</svg>
