<svg width="77" height="77" viewBox="0 0 77 77" fill="none" xmlns="http://www.w3.org/2000/svg">
	<path fill-rule="evenodd" clip-rule="evenodd" d="M58.6291 63.7103C59.3058 64.8029 60.2757 65.6835 61.4284 66.2519C61.7875 66.4279 62.0762 66.7207 62.2471 67.0823C62.418 67.4439 62.4609 67.8529 62.3688 68.2421C62.2768 68.6313 62.0552 68.9777 61.7404 69.2244C61.4256 69.4711 61.0363 69.6035 60.6364 69.5999H16.1644C15.7644 69.6035 15.3751 69.4711 15.0604 69.2244C14.7456 68.9777 14.524 68.6313 14.4319 68.2421C14.3398 67.8529 14.3828 67.4439 14.5536 67.0823C14.7245 66.7207 15.0132 66.4279 15.3724 66.2519C16.525 65.6835 17.4949 64.8029 18.1717 63.7103C18.8484 62.6177 19.2048 61.3571 19.2004 60.0719C19.209 56.3341 20.278 52.6755 22.2832 49.5211C24.2885 46.3667 27.1476 43.846 30.5284 42.2519L36.1924 39.5999H36.0004C35.888 39.5849 35.7787 39.5525 35.6764 39.5039C35.5109 39.4546 35.3533 39.3819 35.2084 39.2879C35.1473 39.2411 35.0945 39.1843 35.0524 39.1199H34.9924C34.9018 38.9937 34.8366 38.851 34.8004 38.6999C34.7821 38.6008 34.7821 38.4991 34.8004 38.3999C34.7706 38.1616 34.813 37.9199 34.9221 37.706C35.0312 37.492 35.202 37.3157 35.4124 37.1999C35.492 37.1886 35.5728 37.1886 35.6524 37.1999C35.7279 37.1874 35.8049 37.1874 35.8804 37.1999H36.6004L34.3324 34.1639L34.6444 33.9239C34.9684 33.6719 35.0764 33.5879 35.4004 33.5879C35.7244 33.5879 35.8324 33.6719 36.1444 33.9239C36.7616 34.4805 37.5633 34.7885 38.3944 34.7885C39.2255 34.7885 40.0271 34.4805 40.6444 33.9239C40.7389 33.817 40.8554 33.7317 40.9858 33.6737C41.1163 33.6158 41.2576 33.5865 41.4004 33.5879C41.7244 33.5879 41.8324 33.6719 42.1444 33.9239L42.4684 34.1639L40.2004 37.1879H40.3684L41.2804 36.5039L44.8804 33.8399C45.135 33.649 45.455 33.567 45.7701 33.612C46.0851 33.657 46.3694 33.8253 46.5604 34.0799C46.7513 34.3345 46.8333 34.6546 46.7883 34.9696C46.7433 35.2847 46.575 35.569 46.3204 35.7599L44.4004 37.1999H46.8004C47.1186 37.1999 47.4239 37.3264 47.6489 37.5514C47.8739 37.7764 48.0004 38.0817 48.0004 38.3999C48.0004 38.7182 47.8739 39.0234 47.6489 39.2485C47.4239 39.4735 47.1186 39.5999 46.8004 39.5999H40.6804L46.3084 42.2759C49.6797 43.8723 52.5297 46.3912 54.5282 49.5408C56.5267 52.6904 57.5919 56.3418 57.6004 60.0719C57.5959 61.3571 57.9523 62.6177 58.6291 63.7103ZM37.2004 22.7999H31.2004C27.6995 22.7999 24.342 21.4092 21.8666 18.9337C19.3911 16.4583 18.0004 13.1008 18.0004 9.59993C18.0004 9.28167 18.1268 8.97644 18.3518 8.7514C18.5769 8.52636 18.8821 8.39993 19.2004 8.39993H26.4004C28.6513 8.39973 30.8649 8.97516 32.8308 10.0715C34.7967 11.1679 36.4496 12.7488 37.6324 14.6639C38.3702 11.8393 40.0236 9.33892 42.3339 7.5541C44.6442 5.76928 47.481 4.8007 50.4004 4.79993H57.6004C57.9186 4.79993 58.2239 4.92636 58.4489 5.1514C58.6739 5.37644 58.8004 5.68167 58.8004 5.99993C58.8004 7.73338 58.4589 9.44985 57.7956 11.0513C57.1322 12.6528 56.1599 14.108 54.9342 15.3337C53.7084 16.5595 52.2533 17.5318 50.6518 18.1951C49.0503 18.8585 47.3338 19.1999 45.6004 19.1999H39.6004V31.7279C39.4401 31.8283 39.2877 31.9406 39.1444 32.0639C38.8324 32.3159 38.7244 32.3999 38.4004 32.3999C38.2576 32.4014 38.1163 32.3721 37.9858 32.3141C37.8554 32.2562 37.7389 32.1708 37.6444 32.0639C37.601 32.0324 37.5564 31.9983 37.5101 31.9629C37.4152 31.8904 37.3132 31.8125 37.2004 31.7399V22.7999ZM35.25 48C34.5596 48 34 48.4797 34 49.0714C34 49.6632 34.5596 50.1428 35.25 50.1428H36.5C37.4254 50.1428 38.2333 50.5738 38.6656 51.2143H35.25C34.5596 51.2143 34 51.6939 34 52.2857C34 52.8774 34.5596 53.3571 35.25 53.3571H38.6656C38.2333 53.9976 37.4254 54.4285 36.5 54.4285H35.25C34.789 54.4285 34.3654 54.646 34.1479 54.9944C33.9304 55.3428 33.9543 55.7655 34.2099 56.0943L39.2099 62.5228C39.5929 63.0151 40.3689 63.1482 40.9434 62.8199C41.5178 62.4917 41.673 61.8265 41.2901 61.3341L37.5167 56.4827C39.3839 56.1521 40.8704 54.9291 41.3425 53.3571H42.75C43.4404 53.3571 44 52.8774 44 52.2857C44 51.6939 43.4404 51.2143 42.75 51.2143H41.3425C41.2283 50.8342 41.0549 50.4744 40.8311 50.1428H42.75C43.4404 50.1428 44 49.6632 44 49.0714C44 48.4797 43.4404 48 42.75 48H35.25Z" fill="#C6D1DD" />
</svg>
