<svg width="77" height="77" viewBox="0 0 77 77" fill="none" xmlns="http://www.w3.org/2000/svg">
	<path d="M64.2248 60.4685L57.4944 53.7379C58.8719 51.6439 59.6938 49.1531 59.6938 46.4501C59.6938 40.0638 55.1359 34.7102 49.0947 33.4652V22.5998C49.0947 16.743 44.3523 12 38.4963 12H22.5984C16.7424 12 12 16.743 12 22.5998V46.4501C12 52.3069 16.7424 57.0499 22.5984 57.0499H38.5758C40.7753 58.6932 43.4779 59.7005 46.4453 59.7005C49.1479 59.7005 51.6384 58.8784 53.7321 57.5007L60.4617 64.232C60.9919 64.7353 61.6541 65 62.3432 65C63.0324 65 63.6946 64.7353 64.2248 64.232C64.7213 63.7317 65 63.0552 65 62.3502C65 61.6452 64.7213 60.9688 64.2248 60.4685ZM22.5984 22.5998H38.4963C39.9534 22.5998 41.1457 23.7924 41.1457 25.2496C41.1457 26.7069 39.9534 27.9002 38.4963 27.9002H22.5984C21.8962 27.8981 21.2234 27.6181 20.727 27.1215C20.2306 26.6248 19.9509 25.9519 19.949 25.2496C19.949 23.7924 21.1413 22.5998 22.5984 22.5998ZM30.5473 38.5H22.5984C21.8963 38.4979 21.2237 38.2181 20.7273 37.7216C20.2309 37.2251 19.9511 36.5524 19.949 35.8502C19.949 34.3922 21.1413 33.1997 22.5984 33.1997H30.5473C32.0044 33.1997 33.1967 34.3922 33.1967 35.8502C33.1967 37.3075 32.0044 38.5 30.5473 38.5ZM38.4963 46.4501C38.4963 42.0775 42.0734 38.5 46.4453 38.5C50.8172 38.5 54.3943 42.0775 54.3943 46.4501C54.3943 50.8226 50.8172 54.4002 46.4453 54.4002C42.0734 54.4002 38.4963 50.8226 38.4963 46.4501Z" fill="#C6D1DD" />
</svg>
