<svg width="17" height="28" viewBox="0 0 17 28" fill="none" xmlns="http://www.w3.org/2000/svg">
<path d="M16.532 0.466733V3.73952H10.2883C10.5347 4.03237 10.7553 4.3479 10.9499 4.68527C11.29 5.27475 11.5185 5.94208 11.644 6.68099H16.532V9.95378H11.7256C11.4817 11.64 10.7691 13.0061 9.5657 14.0131H9.56471C8.45809 14.9352 7.0437 15.5461 5.34421 15.8672L11.9684 26.7916L12.398 27.5004H7.56997L7.43529 27.2654L0.526949 15.2026L0.465013 15.0945V12.8953H1.73618C3.00152 12.8953 4.0409 12.776 4.86445 12.5472L4.8674 12.5462C5.70309 12.3204 6.3254 11.9568 6.7648 11.4756C7.10618 11.1018 7.34967 10.6017 7.48051 9.95378H0.465013V6.68099H7.39301C7.21852 6.10743 6.95734 5.64055 6.61832 5.26924L6.61242 5.26236C6.1676 4.754 5.55276 4.36924 4.74352 4.12195L4.73959 4.12097C3.94579 3.87151 2.94851 3.73952 1.73618 3.73952H0.465013V0.466733H16.532Z" fill="white" stroke="white" stroke-width="0.927405"/>
</svg>
