<svg width="17" height="28" viewBox="0 0 17 28" fill="none" xmlns="http://www.w3.org/2000/svg">
<path d="M16.535 0.466762V3.73983H10.2902C10.5367 4.03273 10.7581 4.3474 10.9528 4.68483C11.293 5.27447 11.5208 5.94244 11.6463 6.6816H16.535V9.95467H11.7282C11.4842 11.6406 10.7719 13.0062 9.56874 14.0131L9.56774 14.0141C8.46109 14.9363 7.04623 15.547 5.34668 15.8681L11.9707 26.792L12.4007 27.5015H7.57197L7.43825 27.267L0.52888 15.2036L0.467011 15.0958V12.8954H1.73832C3.00378 12.8954 4.0431 12.776 4.86669 12.5472L4.86969 12.5462C5.70548 12.3203 6.32825 11.9577 6.76767 11.4764C7.10898 11.1026 7.35229 10.6024 7.48315 9.95467H0.467011V6.6816H7.39534C7.22084 6.10788 6.96007 5.64098 6.62098 5.26959L6.61399 5.26261C6.16919 4.75427 5.55511 4.36932 4.74595 4.12202L4.74196 4.12102C3.94812 3.87154 2.95074 3.73984 1.73832 3.73983H0.467011V0.466762H16.535Z" fill="white" stroke="white" stroke-width="0.913711"/>
</svg>
