<svg width="595" height="356" viewBox="0 0 595 356" fill="none" xmlns="http://www.w3.org/2000/svg">
<path d="M562.094 2.75021H593.998L340.886 101.897C336.948 103.439 337.241 109.106 341.316 110.235L441.187 137.891C445.244 139.015 445.559 144.647 441.652 146.216L302.344 202.148C300.432 202.916 300.529 205.654 302.49 206.284L342.632 219.201C346.546 220.461 346.748 225.923 342.937 227.468L32.9353 353.139H1.03179L316.651 225.191C318.556 224.419 318.455 221.687 316.498 221.058L276.386 208.151C272.465 206.889 272.272 201.413 276.094 199.878L409.748 146.216C413.655 144.647 413.34 139.015 409.283 137.891L309.413 110.235C305.337 109.106 305.044 103.439 308.982 101.897L562.094 2.75021Z" fill="#92C3FF" stroke="#92C3FF" stroke-width="5.49776"/>
</svg>
